<svg id="Layer_1" data-name="Layer 1" xmlns="http://www.w3.org/2000/svg" viewBox="0 0 2500 525.24"><defs><style>.cls-1{fill:#ffc500;}</style></defs><title>star</title><path class="cls-1" d="M1169.29,31.59V144.35H943.46V489.21H808.82V144.07l-263.6.75c-31.78,0-36,25.31-36,35,0,11.91,7.77,23.81,50.43,77.83,27.68,35.08,53.11,70.1,56.46,77.75,18.29,42.11-5.36,107.71-48.45,134.36-30.71,19-25.47,19.44-253.54,19.44H31.54V362.53h386l11.39-7.92c7.69-5.36,12.14-12.73,13.84-22.83,2.37-14.51,1.14-16.4-46.52-70.09-56.34-63.48-62.29-75.07-59.38-115.59C340.16,99.85,381.4,32.66,453.47,32.66l715.81-1.07M1200.83,0l-31.59.05L453.42,1.12c-41.23,0-79.53,17.82-107.8,50.16-22.92,26.22-38,60.83-40.24,92.56-3.84,53.27,8.43,72.52,67.24,138.79,17.07,19.23,33.3,37.52,38.72,45.28a5.07,5.07,0,0,1-.21.63l-.28.21L407.62,331H0V520.75H314.07c112.45,0,168-.1,200.65-2.51,37.41-2.74,49.35-9.15,67.24-20.26l2.23-1.39C640.42,461.82,669.4,379,645,322.83c-7.53-17.18-55.21-77.85-60.62-84.71-15-19-39.67-50.23-43.58-59.28a10.42,10.42,0,0,1,.48-2.09,16.22,16.22,0,0,1,3.95-.39l232.06-.66v345H975V175.88h225.83V0Zm335.35,35.25,158.41,458.2-129.2-.71-21-68.64-230.4-1-20.58,66.12H1161.88l156.67-454h217.63M1351.63,325.51l156.92-.2h0c.54,0-76.26-225.52-76.77-225.68s-81.92,225.87-80.15,225.87m207-321.8H1296.08L1288.75,25l-156.68,454-14.44,41.83h199l6.9-22.17,13.65-43.85,183.85.82L1535.26,502l6.79,22.19,23.21.13,129.2.71,44.54.24-14.55-42.09L1566,24.94Zm-163.21,290.2Q1413,244,1431,194.12q17,49.83,33.86,99.71l-69.4.09ZM1981.09,35.25c102.2,0,173.12,1.46,186.76,3.82,31.54,5.49,60,22.31,81.41,48.19,22.35,27,27.48,40,30.4,77,4.18,52.32-20.7,97.46-69.79,126.75-14.31,8.56-29,16.87-32.68,18.53-5.64,2.56-4.88,5,5.2,16.84a206.2,206.2,0,0,0,25,24.09l13.24,10.29,244.75,3.51,2.4,124.9H2317.77c-116.06,0-153.2-1.07-164.09-4.73C2137.4,479,2098.22,445.76,2018.57,370l-56.85-54.1.6,173.32H1816.26v-454h164.83m-21.51,204.11h77.55c75.46,0,77.83-.24,88.59-8.31,19.24-14.43,26.06-29.3,24-52.12-2.08-23.54-11.16-35.79-33.91-45.65-12.81-5.6-25.16-6.51-85.64-6.51h-70.61v112.6M1981.09,3.71H1784.76v517H1994l-.11-31.65-.35-99.42,3.32,3.15c98.5,93.72,127.56,115,146.73,121.51,14.71,5,39.35,6.4,174.21,6.4H2500l-.62-32.14-2.4-124.9-.58-30.49-30.49-.44-234.2-3.36-4.9-3.82c-1.56-1.22-3.46-2.83-5.48-4.65l4.76-2.83c59.15-35.3,90.15-92.28,85-156.33-3.4-43.21-11.12-62.67-37.54-94.62C2247.64,35.74,2212,14.73,2173.27,8c-21.54-3.73-129.64-4.29-192.18-4.29Zm10,154.59h39.07c55.29,0,66.25.92,73,3.87,12.81,5.55,14.11,8.24,15.12,19.54s-.38,15.75-11.52,24.09l-.88.65c-7.35,1.36-34.64,1.36-68.79,1.36h-46V158.3Z"/></svg>