<?xml version="1.0" encoding="utf-8"?>
<!-- Generator: Adobe Illustrator 21.1.0, SVG Export Plug-In . SVG Version: 6.00 Build 0)  -->
<svg version="1.1" id="Layer_1" xmlns="http://www.w3.org/2000/svg" xmlns:xlink="http://www.w3.org/1999/xlink" x="0px" y="0px"
	 viewBox="0 0 2500 524.4" style="enable-background:new 0 0 2500 524.4;" xml:space="preserve">
<style type="text/css">
	.st0{fill:#FFC500;}
</style>
<path class="st0" d="M468.4,35.2l34.2,100.4c18.5,54.3,35,97.7,37.2,97.7c0,0,0.1,0,0.1,0c2.4-2.1,69.3-196.4,69.3-196.4h129.7
	L582.4,492.7h-90.1c0,0-96.2-277.8-95.8-278.9L296,489.2h-89.2L52.3,35.2l129,0.1c0,0,70.7,200.4,71.6,200.4l0,0l70.5-200.4
	L468.4,35.2 M8.3,3.6l14.2,41.7l154.5,454l7.3,21.4h133.9l7.6-20.7l69.7-191.2c6,17.5,12.5,36.3,19,55.1c16,46.4,32,92.7,48.1,139.1
	l7.3,21.2h135.1l7.3-21.3L768.6,47.1L783,5.3H586.6l-7.3,21.3c-13.4,39-27,78-40.6,117c-2.1-6.1-4.2-12.1-6.3-18.2L498.3,25L491,3.6
	H301.2l-7.4,21.1l-41.2,117.1c-13.9-39-27.7-78-41.5-117.1l-7.4-21l-22.3,0l-129-0.1L8.3,3.6L8.3,3.6z M2465.5,33.4l-0.3,119.5
	c0,0-128.7-0.4-194.1-0.4c-21.8,0-36.5,0.1-37.2,0.2c-11.3,2.1-18.5,26-15.3,36.6c1.6,5.3,13.4,22.7,26.1,38.7
	c12.7,16,33.7,42.1,46.4,58.1c32.8,40.9,37.3,49,40.3,72.5c4.9,38.2-13.1,79.5-46.6,106.7c-33.6,27.3-32.1,27.5-281.4,27.5h-10.9
	c-151.6,0-231.8-1.3-243.5-3.9c-20.7-4.7-53.8-31.7-141.1-115.4c-31.4-30.1-60.4-56.5-61.9-56.5c0,0-0.1,0-0.1,0.1l-1,175.8
	l-141.5-0.6l-0.9-453.3h315.6c95.1,3.4,159.5,98.2,146.7,158.6c-2.9,13.7-10.3,33.6-16.5,44.2c-12.7,21.7-44.9,49.5-71,61.5
	c-9.7,4.4-17.5,9.5-17.5,11.3c0,6.7,31.8,38,43.7,43c10.2,4.3,39.8,5.2,170.4,5.2l41.8,0c131.3,0,124.7-0.9,134.8-22.6
	c7.1-15.1,1.7-24.1-48.2-80.4c-63.3-63-56.7-93.1-57.1-115.4c-0.9-26.7,20.1-110.7,129.4-110.7L2465.5,33.4 M1617.6,242.9
	c60.6,0,72.9-0.9,85.8-6.5c43.5-18.9,45.9-74.8,4.1-99.6c-9.1-5.4-20.9-6.3-86.6-6.7l-76-0.4c0.6,0.6-0.2,108.7-0.2,108.7
	S1563.7,242.9,1617.6,242.9 M2497.1,1.9h-322.6c-63.2,0-100.6,24.9-120.8,45.9c-32.9,34-40.7,76.9-40.1,97.1c0,1.7,0,3.4,0,5.2
	c-0.3,32.8,4.5,70,65.7,131.1c12.1,13.6,32.3,36.4,39.9,47.8c-16.7,2.1-59.1,2.1-103.6,2.1h-18.9l-22.9,0
	c-78.5,0-144.6-0.2-158.2-2.9c-1.9-1.2-4.6-3.4-7.5-5.9c27.1-16.7,54.5-42.6,67.4-64.7c7.8-13.5,16.5-36.4,20.1-53.5
	c8-37.9-5.2-83.7-35.5-122.5c-35.3-45.2-86.7-72.3-140.9-74.2l-0.6,0h-347.8l0.1,31.6l0.9,453.3l0.1,31.3l31.3,0.1l141.5,0.6
	l31.5,0.1l0.2-31.5l0.6-105.3c2.9,2.7,5.9,5.6,8.9,8.5c95.5,91.6,127.6,117,156,123.4c7.8,1.7,20.7,4.6,250.4,4.7h10.9
	c124.4,0,186.8,0,223.9-3.6c42.5-4.1,56.2-13.8,76.7-30.5l0.7-0.6c42.1-34.3,64.4-86.1,58-135.2c-4.1-32-12.6-45.3-47-88.2
	l-10.2-12.8c-12.1-15.1-24.1-30.2-36.2-45.2c-7.8-9.8-14-18.5-17.7-24.2c4.9,0,11.2,0,19.4,0c64.6,0,192.7,0.4,194,0.4l31.6,0.1
	l0.1-31.6l0.3-119.5L2497.1,1.9L2497.1,1.9z M1576.4,210.2l0.1-25.9c0-7.9,0.1-15.8,0.1-23l44.1,0.2c25.4,0.1,63.5,0.3,70.9,2.5
	c9.5,5.8,14.8,14.7,14.2,23.9c-0.3,5-2.7,14.1-15.1,19.5c-6.9,3-17.9,3.9-73.2,3.9C1600,211.3,1586.5,210.8,1576.4,210.2
	L1576.4,210.2z M1115.7,31.6l158.8,457l-129.4,0.6l-21.5-68.6l-231.4-1.9l-20.4,68.7l-128.1-1.3L900.5,31.8L1115.7,31.6
	 M1011.7,98.6c-0.3,1.3-20.3,56.1-40.3,110.8c-20.2,55.2-40.4,110.4-40.7,110.8l0,0c0.5-0.2,72.2-0.3,118.2-0.3
	c21.5,0,37.4,0,37.7,0.1l0,0v0l0,0C1085.6,317.9,1011.9,101.2,1011.7,98.6L1011.7,98.6L1011.7,98.6 M1138.2,0l-22.4,0L900.5,0.2
	l-22.5,0l-7.3,21.2L713.9,475.8l-14.3,41.4l43.8,0.5l128.1,1.3l23.8,0.2l6.8-22.8l13.7-46l184.7,1.5l14.6,46.7l7,22.2l23.3-0.1
	l129.4-0.6l44.1-0.2l-14.5-41.7l-158.8-457L1138.2,0L1138.2,0z M976,288.4c6-16.3,14-38.3,24.9-68.2l9.4-25.8l8.6,25.2
	c2.5,7.5,13.7,40.5,23.3,68.7C1013.8,288.3,992.3,288.3,976,288.4z"/>
</svg>
